<?xml version="1.0" encoding="UTF-8"?>
<svg width="138px" height="41px" viewBox="0 0 138 41" version="1.1" xmlns="http://www.w3.org/2000/svg" xmlns:xlink="http://www.w3.org/1999/xlink">
    <title>payme_icon</title>
    <g id="Page-1" stroke="none" stroke-width="1" fill="none" fill-rule="evenodd">
        <g id="payme_icon" transform="translate(0.189171, -0.000000)" fill-rule="nonzero">
            <path d="M22.5408292,3.95771628 C22.0590511,3.17787669 21.4308206,2.49870863 20.6908292,1.95771628 C19.9434498,1.44670568 19.1245862,1.0490682 18.2608292,0.777716277 C17.3223345,0.470676473 16.3533547,0.266151311 15.3708292,0.167716277 C14.2209634,0.0556324022 13.0661319,0.00222979099 11.9108292,0.00771627697 L1.91082923,0.00771627697 C1.44250726,-0.0365200588 0.976228416,0.110747539 0.618272427,0.41595212 C0.260316437,0.7211567 0.0411864872,1.15829028 0.0108292344,1.62771628 C0.0108292344,1.62771628 0.0108292344,1.68771628 0.0108292344,1.71771628 L0.0108292344,17.9577163 C1.39725105,20.9326899 3.69960045,23.3857258 6.58082923,24.9577163 L6.58082923,21.6977163 C6.53649915,21.1897046 6.69608319,20.684926 7.0243818,20.2947196 C7.35268042,19.9045133 7.822722,19.6609369 8.33082923,19.6177163 L11.3308292,19.6177163 C15.4241626,19.6177163 18.5474959,18.7610496 20.7008292,17.0477163 C22.8541626,15.3343829 23.9474959,12.7943829 23.9809078,9.42771628 C23.9843392,8.45750146 23.8701724,7.49044149 23.6408292,6.54771628 C23.4122289,5.63204808 23.0410263,4.75803452 22.5408292,3.95771628 Z M16.6808292,12.3077163 C16.3320678,12.9078181 15.8136761,13.3914183 15.1908292,13.6977163 C14.5159518,14.0200553 13.7867577,14.2133766 13.0408292,14.2677163 C12.2214822,14.3697454 11.3965017,14.4198454 10.5708292,14.4177814 L7.69082923,14.4177814 C7.00082923,14.4177814 6.57082923,13.8577163 6.57082923,13.0377163 L6.57082923,6.33771628 C6.55069104,6.04007302 6.66449282,5.7489816 6.88116338,5.54391839 C7.09783394,5.33885518 7.39474426,5.24123694 7.69082923,5.27771628 L10.5708292,5.27771628 C11.5041626,5.27771628 12.3841626,5.30438294 13.2108292,5.35771628 C13.9475744,5.39307292 14.6706723,5.56960385 15.3408292,5.87771628 C15.9574159,6.15223303 16.4717863,6.6141167 16.8108292,7.19771628 C17.1936765,7.98023262 17.3692786,8.8479137 17.3208292,9.71771628 C17.3402701,10.6192772 17.1193741,11.5097642 16.6808292,12.2977163 L16.6808292,12.3077163 Z M6.59082923,25.9377163 C4.12478487,25.0480113 1.88019669,23.6357628 0.0108292344,21.7977163 L0.0108292344,29.6477163 C-0.0314860907,29.9498728 0.0512999352,30.2562147 0.240050462,30.4959279 C0.42880099,30.7356411 0.707177089,30.8879751 1.01082923,30.9177163 L5.53082923,30.9177163 C6.73082923,30.9177163 6.59082923,29.6377163 6.59082923,29.6377163 L6.59082923,25.9377163 Z M68.7108292,8.55771628 L64.8108292,8.55771628 C64.0423242,8.50744907 63.349538,9.01859016 63.1708292,9.76771628 L58.6408292,22.2477163 C58.6408292,22.2477163 54.6408292,10.8777163 54.3408292,9.99771628 C54.1672071,9.16120368 53.4351074,8.55805329 52.5808292,8.54771628 L48.9908292,8.54771628 C47.7108292,8.54771628 47.7108292,9.54771628 47.8808292,9.93771628 C48.0508292,10.3277163 52.9608292,23.7877163 54.8808292,28.9377163 C55.1832016,29.5716895 55.3952626,30.2448992 55.5108292,30.9377163 C55.386333,31.6214991 55.1280614,32.2739748 54.7508292,32.8577163 C54.6048769,33.1051725 54.4375735,33.3393972 54.2508292,33.5577163 C57.9508292,32.4577163 62.2508292,28.4477163 64.4108292,24.1177163 C66.5908292,18.1177163 69.4608292,10.1177163 69.5908292,9.70771628 C69.7308292,9.07771628 69.7308292,8.55771628 68.7108292,8.55771628 Z M51.3308292,34.7777163 C50.9963166,34.7687364 50.662515,34.7420323 50.3308292,34.6977163 C49.9208292,34.6377163 49.1408292,34.6977163 49.1408292,35.3977163 L49.1408292,38.3977163 C49.1408292,39.5477163 49.7008292,39.6277163 49.9908292,39.7077163 C50.9169734,39.9108899 51.8626688,40.0114958 52.8108292,40.0077163 C53.9312634,40.0371928 55.0434061,39.8079203 56.0608292,39.3377163 C56.9916091,38.8674931 57.8180652,38.2144907 58.4908292,37.4177163 C59.2536414,36.5455202 59.8991145,35.5773106 60.4108292,34.5377163 C60.9641626,33.4310496 61.4908292,32.2077163 61.9908292,30.8677163 L62.5708292,29.2777163 C61.4108292,30.4277163 56.2908292,35.2577163 51.3308292,34.7777163 Z M45.4308292,12.1477163 C45.2183436,11.6424009 44.9281743,11.1734064 44.5708292,10.7577163 C44.2094695,10.3726513 43.7993289,10.0364705 43.3508292,9.75771628 C42.8663418,9.42779806 42.3505148,9.14643786 41.8108292,8.91771628 C41.2613565,8.70477872 40.6963677,8.53427915 40.1208292,8.40771628 C39.4621981,8.26201527 38.7937185,8.16508572 38.1208292,8.11771628 C37.4008292,8.04438294 36.5941626,8.00771628 35.7008292,8.00771628 C29.7408292,8.00771628 26.3474959,9.88771628 25.5208292,13.6477163 C25.4494568,13.9313395 25.5058244,14.2319926 25.675088,14.4705004 C25.8443516,14.7090082 26.1095443,14.8614628 26.4008292,14.8877163 L30.0708292,14.8877163 C31.0708292,14.8877163 31.0708292,14.5777163 31.4508292,13.7177163 C31.6173812,13.2495084 31.9161062,12.83963 32.3108292,12.5377163 C33.2485617,11.9324296 34.3575524,11.648163 35.4708292,11.7277163 C36.5090625,11.6216049 37.5518978,11.8796625 38.4208292,12.4577163 C39.0836105,13.0764052 39.4753388,13.9317386 39.5108292,14.8377163 C39.5108292,16.0777163 39.1308292,16.8977163 37.5908292,16.8977163 C33.9408292,16.7677163 30.0208292,17.1777163 27.8108292,18.4477163 C25.5962934,19.7995153 24.2758724,22.2342801 24.3508292,24.8277163 C24.3256812,25.8201137 24.5274769,26.8051505 24.9408292,27.7077163 C25.3301914,28.4920862 25.8947443,29.1763926 26.5908292,29.7077163 C27.3215058,30.3036521 28.1650459,30.7458303 29.0708292,31.0077163 C30.0941292,31.2847715 31.1507507,31.4193729 32.2108292,31.4077163 C33.6369532,31.4298792 35.0576764,31.2274008 36.4208292,30.8077163 C37.6256576,30.3140823 38.7644009,29.6724895 39.8108292,28.8977163 L39.8108292,29.5977163 C39.8108292,30.2877163 40.0208292,30.9077163 40.8108292,30.9077163 L45.0608292,30.9077163 C45.9208292,30.9077163 46.1208292,30.2977163 46.1208292,29.5377163 L46.1208292,16.4477163 C46.1259606,15.6312538 46.0691308,14.8155789 45.9508292,14.0077163 C45.856454,13.3683051 45.6817395,12.7433649 45.4308292,12.1477163 L45.4308292,12.1477163 Z M39.6208292,25.0077163 C39.6208292,25.0077163 38.5208292,27.3077163 34.6208292,27.3077163 C33.6856527,27.3507643 32.7610394,27.0950947 31.9808292,26.5777163 C31.2831389,26.0359121 30.9068494,25.1779722 30.9808292,24.2977163 C30.8928267,23.1065048 31.5492586,21.984603 32.6308292,21.4777163 C34.2083992,20.8716275 35.891846,20.5893526 37.5808292,20.6477163 C38.1038843,20.5687999 38.635286,20.7226463 39.0352802,21.0687952 C39.4352744,21.414944 39.6638265,21.9187499 39.6608583,22.4477163 L39.6208292,25.0077163 Z" id="Shape" fill="#FFFFFF"></path>
            <path d="M136.810829,16.5877163 C137.815867,18.2042361 137.815867,20.2511965 136.810829,21.8677163 C135.810829,23.3877163 130.360829,29.2077163 128.560829,31.0777163 C127.000829,32.6977163 124.890829,34.3377163 122.800829,34.3377163 L79.5108292,34.3377163 C73.6508292,34.3377163 73.3008292,32.3377163 73.3008292,27.8777163 L73.3008292,9.68771628 C73.3008292,5.11771628 74.6508292,3.78771628 78.6608292,3.78771628 L122.900829,3.78771628 C124.970829,3.78771628 126.820829,4.84771628 128.900829,6.98771628 C130.720829,8.81771628 136.090829,15.5077163 136.810829,16.5877163 Z" id="Path" fill="#33CCCC"></path>
            <path d="M83.1308292,10.8177163 L83.1308292,10.7077163 C83.1308292,10.1177163 83.1308292,9.54771628 82.1308292,9.54771628 L78.5008292,9.54771628 C77.6508292,9.54771628 77.6108292,10.0077163 77.6108292,10.7277163 L77.6108292,15.5277163 C79.0427142,13.5342858 80.9369004,11.9180508 83.1308292,10.8177163 L83.1308292,10.8177163 Z" id="Path" fill="#FFFFFF"></path>
            <path d="M107.440829,28.1777163 L107.440829,27.9177163 L107.440829,27.9177163 L107.440829,16.3377163 C107.440829,11.4910496 105.300829,9.06771628 101.020829,9.06771628 C99.8295863,9.08182953 98.6659274,9.42815657 97.6608292,10.0677163 C96.5532958,10.758534 95.5640098,11.6228931 94.7308292,12.6277163 C94.3537427,11.5416695 93.6207738,10.6148868 92.6508292,9.99771628 C91.5478027,9.38975862 90.2992338,9.09577426 89.0408292,9.14771628 C87.1899936,9.15468597 85.3934057,9.77347162 83.9308292,10.9077163 C83.6108292,11.2277163 77.6008292,15.9077163 77.6008292,20.7877163 L77.6008292,28.1977163 C77.6008292,28.4277163 77.4808292,29.3277163 78.4908292,29.3277163 L82.2608292,29.3277163 C83.4308292,29.3277163 83.3208292,28.5577163 83.3208292,28.2377163 L83.3208292,16.2377163 C83.9508292,15.3877163 85.2408292,13.3577163 87.3708292,13.3577163 C88.0646304,13.2945878 88.7381915,13.6122331 89.1308292,14.1877163 C89.5584788,15.0414881 89.7451778,15.9957275 89.6708292,16.9477163 L89.6708292,26.2977163 L89.6708292,26.2977163 L89.6708292,28.2177163 C89.6708292,28.4477163 89.5508292,29.3477163 90.5608292,29.3477163 L94.2908292,29.3477163 C95.4608292,29.3477163 95.3508292,28.5777163 95.3508292,28.2577163 L95.3508292,27.9977163 L95.3508292,27.9977163 L95.3508292,16.1977163 C96.0308292,15.3477163 97.3508292,13.3177163 99.4008292,13.3177163 C100.101942,13.260333 100.781651,13.5755053 101.190829,14.1477163 C101.625354,14.999331 101.815713,15.9545889 101.740829,16.9077163 L101.740829,26.2577163 L101.740829,26.2577163 L101.740829,28.1777163 C101.740829,28.4077163 101.620829,29.3077163 102.630829,29.3077163 L106.400829,29.3077163 C107.580829,29.2477163 107.440829,28.4877163 107.440829,28.1777163 Z" id="Path" fill="#FFFFFF"></path>
            <path d="M128.230829,23.4677163 C126.916035,27.0030686 123.457592,29.2749501 119.690829,29.0777163 C113.930829,29.0777163 110.090829,25.1577163 110.090829,19.2777163 C110.090829,13.3977163 114.090829,9.27771628 119.490829,9.27771628 C124.890829,9.27771628 128.490829,13.0177163 128.720829,19.0477163 C128.720829,19.8177163 128.530829,20.4977163 127.560829,20.4977163 L115.340829,20.4977163 C115.420829,23.7277163 116.970829,25.4977163 119.730829,25.4977163 C121.227041,25.5352147 122.608706,24.6999709 123.270829,23.3577163 C123.530244,22.9798206 123.962564,22.7580215 124.420829,22.7677163 L127.570829,22.7677163 C127.762291,22.7586488 127.947467,22.8372383 128.073962,22.9812481 C128.200457,23.1252579 128.254511,23.3190224 128.220829,23.5077163 L128.230829,23.4677163 Z M119.510829,13.0077163 C117.220829,13.0077163 115.670829,14.5977163 115.330829,17.2177163 L123.530829,17.2177163 C123.320829,14.9277163 122.080829,13.0077163 119.510829,13.0077163 Z" id="Shape" fill="#FFFFFF"></path>
        </g>
    </g>
</svg>