<?xml version="1.0" encoding="UTF-8"?>
<svg width="139px" height="34px" viewBox="0 0 139 34" version="1.1" xmlns="http://www.w3.org/2000/svg" xmlns:xlink="http://www.w3.org/1999/xlink">
    <title>PAYNET</title>
    <g id="Page-1" stroke="none" stroke-width="1" fill="none" fill-rule="evenodd">
        <g id="PAYNET">
            <path d="M54,13.7994505 C54,9.69505495 51.3573826,7 46.0973154,7 C43.6057047,7 39,7.81593407 39,13.7252747 L39,25 L43.5302013,25 L43.5302013,20.6483516 L45.9463087,20.6483516 C52.2130872,20.6483516 54,17.4835165 54,13.7994505 Z M49.2684564,13.7005495 C49.2684564,15.6043956 48.2114094,16.6181319 45.5687919,16.6181319 L43.5302013,16.6181319 L43.5302013,14.021978 C43.5302013,11.771978 44.7885906,11.0549451 46.3741611,11.0549451 C48.3624161,11.0549451 49.2684564,12.1428571 49.2684564,13.7005495 Z" id="Shape" fill="#FFFFFF" fill-rule="nonzero"></path>
            <path d="M71,25 L71,14.3681319 C71,9.29945055 68.3196721,7 63.5,7 C59.0737705,7 56,9.22527473 56,14.3681319 L56,25 L60.4262295,25 L60.4262295,20.228022 L66.5737705,20.228022 L66.5737705,25 L71,25 Z M66.5737705,16.2225275 L60.4262295,16.2225275 L60.4262295,14.3681319 C60.4262295,11.9945055 61.6311475,11.0549451 63.5,11.0549451 C65.3196721,11.0549451 66.5737705,11.8461538 66.5737705,14.3681319 L66.5737705,16.2225275 Z" id="Shape" fill="#FFFFFF" fill-rule="nonzero"></path>
            <path d="M88,12.7067039 L88,7 L83.631068,7 L83.631068,12.7067039 C83.631068,15.1201117 82.3446602,16.1005587 80.5,16.1005587 C78.5339806,16.1005587 77.368932,15.1201117 77.368932,12.7067039 L77.368932,7 L73,7 L73,12.7067039 C73,17.0307263 74.9174757,19.3687151 78.315534,19.972067 L78.315534,25 L82.684466,25 L82.684466,19.972067 C85.8398058,19.2932961 88,17.0307263 88,12.7067039 Z" id="Path" fill="#FFFFFF" fill-rule="nonzero"></path>
            <path d="M106,25 L106,14.3681319 C106,9.29945055 103.312704,7 98.5,7 C94.1026059,7 91,9.22527473 91,14.3681319 L91,25 L95.3973941,25 L95.3973941,14.3681319 C95.3973941,11.9945055 96.6433225,11.0549451 98.5,11.0549451 C100.478827,11.0549451 101.602606,11.9945055 101.602606,14.3681319 L101.602606,25 L106,25 Z" id="Path" fill="#FFFFFF" fill-rule="nonzero"></path>
            <path d="M122,25 L122,20.9022346 L115.440678,20.9022346 C113,20.9022346 111.855932,19.7709497 111.728814,17.8603352 L122,17.8603352 L122,13.9385475 L111.779661,13.9385475 C111.957627,12.3044693 112.872881,11.122905 115.186441,11.122905 L122,11.122905 L122,7 L116.152542,7 C110.228814,7 107,10.0670391 107,16 C107,21.7318436 110.152542,25 116.152542,25 L122,25 Z" id="Path" fill="#FFFFFF" fill-rule="nonzero"></path>
            <polygon id="Path" fill="#FFFFFF" fill-rule="nonzero" points="139 11.0977654 139 7 124 7 124 11.0977654 129.25 11.0977654 129.25 25 133.75 25 133.75 11.0977654"></polygon>
            <circle id="Oval" fill="#00B427" cx="17" cy="17" r="17"></circle>
        </g>
    </g>
</svg>