<?xml version="1.0" encoding="UTF-8"?>
<svg width="147px" height="50px" viewBox="0 0 147 50" version="1.1" xmlns="http://www.w3.org/2000/svg" xmlns:xlink="http://www.w3.org/1999/xlink">
    <title>click_icon</title>
    <defs>
        <linearGradient x1="16.1021655%" y1="83.7219251%" x2="82.9971765%" y2="17.2194854%" id="linearGradient-1">
            <stop stop-color="#0073FF" offset="0%"></stop>
            <stop stop-color="#00DEFF" offset="100%"></stop>
        </linearGradient>
        <linearGradient x1="16.7164984%" y1="96.3237624%" x2="126.315165%" y2="-63.0415842%" id="linearGradient-2">
            <stop stop-color="#0073FF" offset="10.22%"></stop>
            <stop stop-color="#00DEFF" offset="100%"></stop>
        </linearGradient>
        <linearGradient x1="5.4003623%" y1="109.610949%" x2="69.6000053%" y2="-7.87737226%" id="linearGradient-3">
            <stop stop-color="#0073FF" offset="0%"></stop>
            <stop stop-color="#00DEFF" offset="100%"></stop>
        </linearGradient>
    </defs>
    <g id="Page-1" stroke="none" stroke-width="1" fill="none" fill-rule="evenodd">
        <g id="click_icon">
            <g id="Group">
                <path d="M65.3,33.8 C64.2,33.8 63.2,33.6 62.3,33.3 C61.4,33 60.6,32.5 59.9,31.8 C59.2,31.1 58.7,30.3 58.3,29.3 C57.9,28.3 57.7,27.1 57.7,25.8 L57.7,25.2 C57.7,24 57.9,22.9 58.3,21.9 C58.7,21 59.3,20.2 60,19.5 C60.7,18.8 61.5,18.4 62.4,18 C63.3,17.7 64.3,17.5 65.3,17.5 C66.4,17.5 67.3,17.6 68.2,17.9 C69,18.2 69.7,18.6 70.3,19.1 C70.9,19.6 71.3,20.2 71.7,20.9 C72,21.6 72.2,22.3 72.3,23.1 L68.4,23.1 C68.2,22.4 67.8,21.8 67.4,21.4 C66.9,21 66.3,20.8 65.4,20.8 C64.9,20.8 64.4,20.9 64,21.1 C63.6,21.3 63.2,21.5 62.8,21.9 C62.5,22.3 62.2,22.7 62,23.3 C61.8,23.8 61.7,24.5 61.7,25.3 L61.7,25.9 C61.7,26.7 61.8,27.4 62,28 C62.2,28.6 62.4,29.1 62.8,29.4 C63.1,29.8 63.5,30.1 64,30.2 C64.4,30.4 64.9,30.5 65.4,30.5 C66.2,30.5 66.8,30.3 67.4,29.9 C67.9,29.5 68.3,28.9 68.5,28.2 L72.4,28.2 C72.3,29.1 72.1,29.8 71.7,30.5 C71.3,31.2 70.8,31.8 70.2,32.3 C69.6,32.8 68.9,33.2 68.1,33.4 C67.2,33.7 66.3,33.8 65.3,33.8" id="Path" fill="#FFFFFF" fill-rule="nonzero"></path>
                <path d="M80.2,33.7 C79.3,33.7 78.5,33.6 77.9,33.5 C77.3,33.3 76.7,33 76.3,32.6 C75.9,32.2 75.6,31.6 75.4,30.9 C75.2,30.2 75.1,29.3 75.1,28.3 L75.1,13 L79,13 L79,27.8 C79,28.3 79,28.7 79.1,29 C79.2,29.3 79.3,29.6 79.4,29.8 C79.6,30 79.8,30.2 80,30.2 C80.3,30.3 80.6,30.3 81,30.3 C81.2,30.3 81.4,30.3 81.6,30.3 C81.8,30.3 81.9,30.3 82.1,30.3 L82.1,33.5 C82,33.5 81.9,33.5 81.7,33.6 C81.6,33.6 81.4,33.6 81.2,33.6 C81,33.6 80.9,33.6 80.7,33.6 L80.2,33.6 L80.2,33.7 Z" id="Path" fill="#FFFFFF" fill-rule="nonzero"></path>
                <path d="M86.8,16.3 C86.1,16.3 85.5,16.1 85.1,15.7 C84.7,15.3 84.5,14.8 84.5,14.2 C84.5,13.6 84.7,13.1 85.1,12.7 C85.5,12.3 86.1,12.1 86.8,12.1 C87.5,12.1 88.1,12.3 88.5,12.7 C88.9,13.1 89.1,13.6 89.1,14.2 C89.1,14.8 88.9,15.3 88.5,15.7 C88.1,16.1 87.6,16.3 86.8,16.3 M84.9,18 L88.8,18 L88.8,33.5 L84.9,33.5 L84.9,18 Z" id="Shape" fill="#FFFFFF" fill-rule="nonzero"></path>
                <path d="M99.4,33.8 C98.3,33.8 97.3,33.6 96.4,33.3 C95.5,33 94.7,32.5 94,31.8 C93.3,31.1 92.8,30.3 92.4,29.3 C92,28.3 91.8,27.1 91.8,25.8 L91.8,25.2 C91.8,24 92,22.9 92.4,21.9 C92.8,21 93.4,20.2 94.1,19.5 C94.8,18.8 95.6,18.4 96.5,18 C97.4,17.7 98.4,17.5 99.4,17.5 C100.5,17.5 101.4,17.6 102.3,17.9 C103.1,18.2 103.8,18.6 104.4,19.1 C105,19.6 105.4,20.2 105.8,20.9 C106.1,21.6 106.3,22.3 106.4,23.1 L102.5,23.1 C102.3,22.4 101.9,21.8 101.5,21.4 C101,21 100.4,20.8 99.5,20.8 C99,20.8 98.5,20.9 98.1,21.1 C97.7,21.3 97.3,21.5 96.9,21.9 C96.6,22.3 96.3,22.7 96.1,23.3 C95.9,23.8 95.8,24.5 95.8,25.3 L95.8,25.9 C95.8,26.7 95.9,27.4 96.1,28 C96.3,28.6 96.5,29.1 96.9,29.4 C97.2,29.8 97.6,30.1 98.1,30.2 C98.5,30.4 99,30.5 99.5,30.5 C100.3,30.5 100.9,30.3 101.5,29.9 C102,29.5 102.4,28.9 102.6,28.2 L106.5,28.2 C106.4,29.1 106.2,29.8 105.8,30.5 C105.4,31.2 104.9,31.8 104.3,32.3 C103.7,32.8 103,33.2 102.2,33.4 C101.3,33.7 100.4,33.8 99.4,33.8" id="Path" fill="#FFFFFF" fill-rule="nonzero"></path>
                <polygon id="Path" fill="#FFFFFF" fill-rule="nonzero" points="109.1 33.5 109.1 13 112.9 13 112.9 24.4 118.6 18 123.1 18 117.3 24.5 123.7 33.5 119.1 33.5 114.7 27.2 112.9 29.1 112.9 33.5"></polygon>
                <g id="SVGID_1_-link" fill="url(#linearGradient-1)">
                    <path d="M16,33.9 C9.8,27.7 9.9,22.1 16,15.9 C22.1,9.8 27.8,9.7 34,15.9 C40.2,22.1 40.1,27.7 34,33.9 C30.9,37 28,38.5 25,38.5 C22,38.6 19.1,37 16,33.9 M8.5,8.5 C2.9,14.1 0,19.5 0,24.9 L0,25 C0,30.4 2.8,35.8 8.5,41.4 C14.2,47.1 19.6,49.9 24.9,49.9 L25,49.9 C30.4,49.9 35.8,47 41.4,41.4 C52.7,30.1 52.8,19.8 41.4,8.4 C35.8,2.8 30.4,0 25,0 C19.5,0 14.1,2.8 8.5,8.5 Z" id="SVGID_1_"></path>
                </g>
            </g>
            <g id="Group" transform="translate(125.500000, 7.800000)" fill-rule="nonzero">
                <path d="M3.5,10.3 C2.4,10.3 1.5,10 0.9,9.3 C0.3,8.6 1.42108547e-14,7.6 1.42108547e-14,6.3 L1.42108547e-14,0.3 L2.4,0.3 L2.4,6 C2.4,6.7 2.6,7.3 2.9,7.7 C3.2,8.1 3.7,8.3 4.4,8.3 C4.8,8.3 5.1,8.2 5.4,8.1 C5.7,8 5.9,7.8 6.1,7.6 C6.3,7.4 6.4,7.2 6.5,6.9 C6.6,6.6 6.6,6.3 6.6,6 L6.6,0.2 L9,0.2 L9,10 L6.7,10 L6.7,8.5 C6.5,9 6.1,9.4 5.6,9.7 C5,10.1 4.3,10.3 3.5,10.3 Z" id="Path" fill="url(#linearGradient-2)"></path>
                <path d="M11.1,13.7 L11.1,0.2 L13.4,0.2 L13.4,1.7 C13.7,1.2 14.1,0.8 14.6,0.5 C15.1,0.2 15.8,3.55271368e-15 16.6,3.55271368e-15 C17.9,3.55271368e-15 19,0.4 19.7,1.2 C20.4,2 20.8,3.2 20.8,4.8 L20.8,5.2 C20.8,6 20.7,6.8 20.5,7.4 C20.3,8 20,8.6 19.7,9 C19.3,9.4 18.9,9.7 18.4,9.9 C17.9,10.1 17.3,10.2 16.7,10.2 C16,10.2 15.5,10.1 14.9,9.8 C14.4,9.5 14,9.1 13.6,8.6 L13.6,13.7 L11.1,13.7 Z M16,8.2 C16.3,8.2 16.6,8.1 16.9,8 C17.2,7.9 17.4,7.7 17.6,7.4 C17.8,7.2 18,6.8 18.1,6.5 C18.2,6.1 18.3,5.7 18.3,5.2 L18.3,4.8 C18.3,4.3 18.2,3.9 18.1,3.6 C18,3.3 17.8,3 17.6,2.7 C17.4,2.5 17.2,2.3 16.9,2.2 C16.6,2.1 16.3,2 16,2 C15.7,2 15.3,2.1 15,2.2 C14.7,2.3 14.4,2.5 14.2,2.7 C14,2.9 13.8,3.2 13.7,3.5 C13.6,3.8 13.5,4.1 13.5,4.5 L13.5,5.6 C13.5,6 13.6,6.4 13.7,6.7 C13.8,7 14,7.3 14.2,7.5 C14.4,7.7 14.7,7.9 15,8 C15.3,8.1 15.6,8.2 16,8.2 Z" id="Shape" fill="url(#linearGradient-3)"></path>
            </g>
        </g>
    </g>
</svg>